<svg width="32" height="30" viewBox="0 0 32 30" fill="none" xmlns="http://www.w3.org/2000/svg"><path d="M15.652 0C7.004 0 0 6.887 0 15.38c0 6.797 4.484 12.561 10.702 14.594.783.144 1.07-.332 1.07-.74 0-.365-.014-1.333-.02-2.615-4.354.927-5.272-2.064-5.272-2.064-.712-1.775-1.741-2.25-1.741-2.25-1.418-.953.11-.934.11-.934 1.57.107 2.397 1.585 2.397 1.585 1.395 2.352 3.663 1.672 4.558 1.28.141-.995.544-1.672.992-2.057-3.477-.385-7.13-1.708-7.13-7.6 0-1.68.607-3.051 1.61-4.127-.175-.39-.703-1.953.138-4.071 0 0 1.31-.412 4.304 1.577a15.28 15.28 0 0 1 3.913-.52c1.33.008 2.66.178 3.913.52 2.974-1.99 4.285-1.577 4.285-1.577.841 2.118.313 3.682.156 4.07.998 1.077 1.605 2.449 1.605 4.127 0 5.91-3.659 7.21-7.142 7.588.548.462 1.057 1.404 1.057 2.846 0 2.058-.02 3.712-.02 4.212 0 .402.274.884 1.076.73 6.262-2.02 10.743-7.787 10.743-14.573C31.304 6.887 24.296 0 15.652 0Z" fill="#31373D"/></svg>
